<svg xmlns="http://www.w3.org/2000/svg" viewBox="0 0 316.04379 449.87277"><defs><style>.a{fill:#3eb8ff;}.b{fill:#1a1a1a;}</style></defs><path class="a" d="M255.99916,480.93639c87.13008,0,158.02273-70.87566,158.02273-158.00063,0-85.32762-148.09731-278.988-154.40423-287.18748l-3.6185-4.68467-3.61853,4.7153c-6.2984,8.18417-154.40252,201.85814-154.40252,287.17216C97.97981,410.06073,168.87077,480.93639,255.99916,480.93639Z" transform="translate(-97.97811 -31.06361)"/><path class="b" d="M187.10156,331.90723q7.8003,5.31738,7.80078,14.01465a17.097,17.097,0,0,1-5.38476,12.84082q-6.145,6.00585-16.98291,6.00585h-.96631a36.87808,36.87808,0,0,1-11.978-2.209,50.774,50.774,0,0,1-10.3208-5.38477,5.30436,5.30436,0,0,1-2.48535-3.58984,5.79022,5.79022,0,0,1,4.45264-6.835,5.53388,5.53388,0,0,1,4.31494.8291,43.02489,43.02489,0,0,0,7.73193,4.03809,25.38184,25.38184,0,0,0,8.56055,1.62207h.69043q6.14355,0,8.97461-2.69238a6.27768,6.27768,0,0,0,1.86426-4.625,4.02616,4.02616,0,0,0-.10352-.9668,9.93514,9.93514,0,0,0-.44873-1.24219,3.71432,3.71432,0,0,0-1.27734-1.51855,26.97886,26.97886,0,0,0-2.41651-1.55372,21.01975,21.01975,0,0,0-4.10742-1.6914,59.98333,59.98333,0,0,0-6.00635-1.51856h-.06885a38.52828,38.52828,0,0,1-12.42675-4.69433q-8.07716-5.17823-7.87012-14.01465.20727-9.31934,5.90283-14.01465,5.69532-4.69336,15.29151-4.69433,1.44945,0,2.96875.13769h.06884q6.90235.48486,16.0166,5.17773a5.85387,5.85387,0,0,1,2.45069,7.76661,5.46826,5.46826,0,0,1-3.34815,2.831,5.58862,5.58862,0,0,1-4.41845-.37988q-6.835-3.52149-11.39112-3.93457h-.06884v.06836a6.37321,6.37321,0,0,1-.89747-.06836q-10.08032-.55226-10.77,4.832a18.01829,18.01829,0,0,1-.10351,1.93262,3.46538,3.46538,0,0,0,.51807,2.07129,8.59118,8.59118,0,0,0,1.65673,2.07128,11.56129,11.56129,0,0,0,3.31348,1.93262,30.36255,30.36255,0,0,0,5.523,1.65723Q181.647,328.24854,187.10156,331.90723Z" transform="translate(-97.97811 -31.06361)"/><path class="b" d="M261.38477,354.41309a6.11767,6.11767,0,0,1,.62109,2.93457,5.6636,5.6636,0,0,1-.89746,2.79589,5.35053,5.35053,0,0,1-2.27832,2.002,5.41937,5.41937,0,0,1-4.38379.34472,5.70091,5.70091,0,0,1-3.34815-2.89941l-4.0039-7.93945H214.50879l-4.07324,7.93945a5.58165,5.58165,0,0,1-2.13965,2.34766,5.67924,5.67924,0,0,1-2.96875.82812,5.44141,5.44141,0,0,1-4.936-2.76172,5.3774,5.3774,0,0,1-.2417-5.59179L225.624,304.22363q.137-.20654.27588-.41406l.06885-.13769a2.21669,2.21669,0,0,1,.27637-.34571.0607.0607,0,0,1,.06884-.06836q.1377-.208.27637-.41406a.0614.0614,0,0,0,.06885-.06934,5.51556,5.51556,0,0,1,3.86621-1.65722h.69043a2.04033,2.04033,0,0,1,.4834.06933h.06885a3.80207,3.80207,0,0,1,1.03564.27637h.06885a4.95443,4.95443,0,0,1,.4834.27539h.06884a3.01619,3.01619,0,0,0,.34522.207,2.00375,2.00375,0,0,1,.27637.17285,2.36713,2.36713,0,0,1,.207.17286,5.969,5.969,0,0,1,1.79492,2.209.84941.84941,0,0,0-.13818-.207Zm-30.583-34.86329-10.49365,20.57325h20.918Zm5.24658-10.42382a2.82521,2.82521,0,0,1-.13818.34472A2.82521,2.82521,0,0,0,236.04834,309.126Zm0-4.55664a.2022.2022,0,0,1,.06885.13769v.06934A.28381.28381,0,0,0,236.04834,304.56934Zm.207.41406v.06933c-.04639-.09179-.09277-.18359-.13818-.27636A.83061.83061,0,0,1,236.25537,304.9834Zm-.06885,3.93555v0Z" transform="translate(-97.97811 -31.06361)"/><path class="b" d="M307.84766,312.64648h-27.6836v13.53125h22.78125a5.76479,5.76479,0,0,1,0,11.5293H280.16406v19.3291a5.76479,5.76479,0,0,1-11.52929,0V306.84766a5.675,5.675,0,0,1,.75878-2.89942A5.52148,5.52148,0,0,1,271.499,301.877a5.872,5.872,0,0,1,2.93457-.75976h33.41407a5.7648,5.7648,0,0,1,0,11.52929Z" transform="translate(-97.97811 -31.06361)"/><path class="b" d="M359.55566,351.2373a5.7648,5.7648,0,0,1,0,11.5293H326.07227a5.77542,5.77542,0,0,1-5.7295-5.73047V306.84766a5.77542,5.77542,0,0,1,5.7295-5.73047h33.48339a5.76479,5.76479,0,0,1,0,11.52929H331.87207v13.53125h22.78125a5.76479,5.76479,0,0,1,0,11.5293H331.87207V351.2373Z" transform="translate(-97.97811 -31.06361)"/></svg>